<?xml version="1.0" encoding="UTF-8"?> <svg xmlns="http://www.w3.org/2000/svg" width="243" height="28" viewBox="0 0 243 28" fill="none"><rect x="0.0957031" width="242" height="28" rx="8" fill="white" fill-opacity="0.8"></rect><g clip-path="url(#clip0_943_7406)"><path d="M27.705 16.7267C27.705 16.7267 21.8824 14.08 21.8617 14.0733C21.3764 13.908 20.8497 14.03 20.487 14.3927C20.1244 14.7553 20.0024 15.282 20.1924 15.8267L22.8217 21.61C22.9277 21.844 23.159 21.996 23.4164 22.0007H23.429C23.681 22.0007 23.9124 21.858 24.0257 21.632L25.2597 19.164L27.7277 17.93C27.9577 17.8147 28.101 17.5787 28.0964 17.3213C28.0917 17.0647 27.9397 16.8333 27.7057 16.7267H27.705ZM24.4644 18.0707C24.3357 18.1353 24.2304 18.24 24.1664 18.3687L23.457 19.7873L21.4277 15.3367L25.8817 17.362L24.465 18.07L24.4644 18.0707ZM20.7037 20.64C20.589 20.65 20.4737 20.6573 20.357 20.662C19.9117 20.2213 18.7504 18.9833 17.941 17.334H18.429C18.797 17.334 19.0957 17.036 19.0957 16.6673C19.0957 16.2987 18.797 16.0007 18.429 16.0007H17.409C17.215 15.366 17.0957 14.694 17.0957 14.0007C17.0957 13.3073 17.2157 12.636 17.4104 12.0007H22.7817C22.8604 12.2587 22.927 12.5227 22.9784 12.792C23.0477 13.154 23.3977 13.3927 23.7577 13.322C24.119 13.2533 24.3564 12.904 24.2877 12.5427C24.253 12.3593 24.2117 12.1787 24.1657 12.0007H26.4277C26.4364 12.0007 26.4457 12.0007 26.4544 12.0007C26.6537 12.6327 26.761 13.3047 26.761 14.0013C26.761 14.206 26.7517 14.408 26.7337 14.608C26.701 14.9747 26.971 15.2987 27.3377 15.332C27.7057 15.368 28.029 15.0947 28.0617 14.728C28.083 14.4887 28.0944 14.246 28.0944 14.0013C28.0957 9.58867 24.507 6 20.0957 6C15.6844 6 12.0957 9.58867 12.0957 14C12.0957 18.4113 15.6844 22 20.095 22C20.3397 22 20.5817 21.9887 20.8204 21.9673C21.187 21.9347 21.4584 21.6113 21.4257 21.244C21.393 20.878 21.0704 20.6073 20.703 20.6393L20.7037 20.64ZM16.0237 16.0007H13.7624C13.7537 16.0007 13.745 16.0007 13.7357 16.0007C13.5364 15.3687 13.429 14.6967 13.429 14C13.429 13.3033 13.5364 12.6313 13.7357 11.9993C13.7444 11.9993 13.753 11.9993 13.7624 11.9993H16.0237C15.8604 12.636 15.7624 13.3053 15.7624 13.9993C15.7624 14.6933 15.8597 15.3627 16.0237 15.9993V16.0007ZM17.9444 10.6673C18.625 9.28267 19.5544 8.18467 20.097 7.60867C20.6404 8.184 21.5697 9.28 22.2504 10.6673H17.9444ZM25.8677 10.6673H23.7157C23.1884 9.41 22.457 8.342 21.8277 7.56267C23.547 8.026 24.9937 9.16067 25.8677 10.6673ZM18.3624 7.56267C17.733 8.342 17.001 9.41 16.4744 10.6667H14.3237C15.197 9.16 16.643 8.02533 18.3624 7.56267ZM14.3237 17.3333H16.4744C17.001 18.5907 17.733 19.658 18.3624 20.4373C16.6437 19.974 15.1977 18.8393 14.3237 17.3333Z" fill="#1A375C"></path></g><path d="M40.3337 18.604C39.8484 18.604 39.3847 18.552 38.9427 18.448C38.5094 18.344 38.115 18.1793 37.7597 17.954C37.413 17.7287 37.1314 17.4383 36.9147 17.083C36.7067 16.7277 36.5897 16.2987 36.5637 15.796H38.1367C38.1714 16.0387 38.2537 16.2423 38.3837 16.407C38.5224 16.5717 38.6914 16.706 38.8907 16.81C39.0987 16.914 39.3284 16.9877 39.5797 17.031C39.831 17.0743 40.0824 17.096 40.3337 17.096C40.5417 17.096 40.7584 17.083 40.9837 17.057C41.2177 17.0223 41.4344 16.9573 41.6337 16.862C41.8417 16.7667 42.0064 16.6323 42.1277 16.459C42.2577 16.277 42.3227 16.043 42.3227 15.757C42.3227 15.497 42.2707 15.2847 42.1667 15.12C42.0714 14.9553 41.937 14.8297 41.7637 14.743C41.5904 14.6563 41.3867 14.5957 41.1527 14.561C40.9274 14.5263 40.6804 14.509 40.4117 14.509H39.1637V13.144H40.0477C40.3077 13.144 40.5547 13.1223 40.7887 13.079C41.0227 13.027 41.2264 12.9533 41.3997 12.858C41.5817 12.7627 41.7247 12.637 41.8287 12.481C41.9327 12.3163 41.9847 12.1213 41.9847 11.896C41.9847 11.558 41.8937 11.3067 41.7117 11.142C41.5384 10.9687 41.3174 10.8517 41.0487 10.791C40.78 10.7217 40.5114 10.687 40.2427 10.687C39.9134 10.687 39.61 10.7303 39.3327 10.817C39.0554 10.9037 38.83 11.038 38.6567 11.22C38.4834 11.402 38.388 11.6317 38.3707 11.909H36.7977C36.8064 11.4757 36.8887 11.1073 37.0447 10.804C37.2007 10.492 37.4044 10.2363 37.6557 10.037C37.907 9.829 38.1887 9.66433 38.5007 9.543C38.8127 9.413 39.1334 9.322 39.4627 9.27C39.792 9.218 40.0997 9.192 40.3857 9.192C40.7844 9.192 41.17 9.23533 41.5427 9.322C41.924 9.40867 42.2664 9.55167 42.5697 9.751C42.8817 9.94167 43.1287 10.1973 43.3107 10.518C43.4927 10.8387 43.5837 11.2243 43.5837 11.675C43.5837 11.9003 43.549 12.1257 43.4797 12.351C43.419 12.5763 43.3064 12.793 43.1417 13.001C42.9857 13.209 42.7474 13.3997 42.4267 13.573C42.938 13.7203 43.3194 13.9977 43.5707 14.405C43.8307 14.8123 43.9607 15.2803 43.9607 15.809C43.952 16.303 43.8437 16.7277 43.6357 17.083C43.4364 17.4383 43.1677 17.7287 42.8297 17.954C42.4917 18.1707 42.106 18.3353 41.6727 18.448C41.248 18.552 40.8017 18.604 40.3337 18.604ZM47.399 18.591C47.0957 18.591 46.801 18.5477 46.515 18.461C46.2377 18.3743 45.9863 18.2487 45.761 18.084C45.5357 17.9107 45.358 17.6983 45.228 17.447C45.098 17.187 45.033 16.8837 45.033 16.537C45.033 16.095 45.1197 15.7353 45.293 15.458C45.4663 15.172 45.7003 14.9553 45.995 14.808C46.2983 14.6607 46.6407 14.561 47.022 14.509C47.4033 14.4483 47.802 14.418 48.218 14.418H49.557C49.557 14.1147 49.5093 13.8547 49.414 13.638C49.3187 13.4127 49.167 13.235 48.959 13.105C48.7597 12.975 48.4997 12.91 48.179 12.91C47.971 12.91 47.776 12.936 47.594 12.988C47.4207 13.0313 47.269 13.105 47.139 13.209C47.0177 13.3043 46.931 13.43 46.879 13.586H45.254C45.3147 13.2307 45.436 12.9273 45.618 12.676C45.8087 12.416 46.0383 12.2037 46.307 12.039C46.5843 11.8743 46.8877 11.753 47.217 11.675C47.5463 11.5883 47.88 11.545 48.218 11.545C48.8853 11.545 49.427 11.675 49.843 11.935C50.2677 12.195 50.5797 12.5677 50.779 13.053C50.9783 13.5383 51.078 14.1233 51.078 14.808V18.5H49.674L49.635 17.668C49.4443 17.9107 49.2233 18.1013 48.972 18.24C48.7293 18.37 48.4737 18.461 48.205 18.513C47.9363 18.565 47.6677 18.591 47.399 18.591ZM47.763 17.304C48.1183 17.304 48.4303 17.239 48.699 17.109C48.9677 16.979 49.18 16.797 49.336 16.563C49.492 16.329 49.57 16.056 49.57 15.744V15.536H48.335C48.1097 15.536 47.893 15.5447 47.685 15.562C47.477 15.5707 47.2907 15.6053 47.126 15.666C46.97 15.718 46.8443 15.8003 46.749 15.913C46.6537 16.0257 46.606 16.186 46.606 16.394C46.606 16.5933 46.658 16.7623 46.762 16.901C46.866 17.031 47.0047 17.1307 47.178 17.2C47.36 17.2693 47.555 17.304 47.763 17.304ZM52.5922 18.5V11.649H57.4542V13.053H54.1782V18.5H52.5922ZM58.4447 21.022V11.649H59.9267L60.0047 12.585C60.2734 12.221 60.6027 11.9567 60.9927 11.792C61.3827 11.6273 61.7944 11.545 62.2277 11.545C62.8864 11.545 63.4367 11.701 63.8787 12.013C64.3207 12.325 64.6501 12.7497 64.8667 13.287C65.0834 13.8157 65.1917 14.4137 65.1917 15.081C65.1917 15.7483 65.0791 16.3463 64.8537 16.875C64.6371 17.4037 64.2991 17.824 63.8397 18.136C63.3891 18.4393 62.8084 18.591 62.0977 18.591C61.7684 18.591 61.4737 18.5563 61.2137 18.487C60.9537 18.409 60.7241 18.3093 60.5247 18.188C60.3341 18.058 60.1694 17.9193 60.0307 17.772V21.022H58.4447ZM61.8767 17.161C62.3187 17.161 62.6654 17.0657 62.9167 16.875C63.1681 16.6757 63.3501 16.42 63.4627 16.108C63.5754 15.7873 63.6317 15.4493 63.6317 15.094C63.6317 14.7213 63.5711 14.3747 63.4497 14.054C63.3371 13.7333 63.1507 13.4733 62.8907 13.274C62.6307 13.0747 62.2841 12.975 61.8507 12.975C61.4521 12.975 61.1141 13.0747 60.8367 13.274C60.5681 13.4647 60.3644 13.7203 60.2257 14.041C60.0871 14.3617 60.0177 14.7083 60.0177 15.081C60.0177 15.4623 60.0827 15.8133 60.2127 16.134C60.3427 16.446 60.5464 16.6973 60.8237 16.888C61.1011 17.07 61.4521 17.161 61.8767 17.161ZM66.7034 21.568V19.982C67.0934 19.982 67.4054 19.9387 67.6394 19.852C67.8821 19.774 68.0857 19.644 68.2504 19.462C68.4151 19.2887 68.5667 19.059 68.7054 18.773L65.7934 11.649H67.6394L69.6154 16.966L71.1754 11.649H72.9174L71.0714 17.382C70.9674 17.7027 70.8504 18.0363 70.7204 18.383C70.5991 18.7297 70.4561 19.0677 70.2914 19.397C70.1354 19.7263 69.9577 20.0297 69.7584 20.307C69.5591 20.5843 69.3337 20.814 69.0824 20.996C68.8744 21.1433 68.6664 21.256 68.4584 21.334C68.2591 21.4207 68.0207 21.4813 67.7434 21.516C67.4747 21.5507 67.1281 21.568 66.7034 21.568ZM76.4596 18.591C76.1043 18.591 75.7489 18.5563 75.3936 18.487C75.0469 18.409 74.7219 18.2877 74.4186 18.123C74.1239 17.9497 73.8813 17.7243 73.6906 17.447C73.4999 17.1697 73.3873 16.8273 73.3526 16.42H74.8996C74.9256 16.6107 75.0209 16.7667 75.1856 16.888C75.3589 17.0093 75.5583 17.1003 75.7836 17.161C76.0176 17.213 76.2343 17.239 76.4336 17.239C76.6503 17.239 76.8626 17.2173 77.0706 17.174C77.2786 17.122 77.4519 17.0353 77.5906 16.914C77.7379 16.784 77.8116 16.6063 77.8116 16.381C77.8116 16.173 77.7596 16.017 77.6556 15.913C77.5603 15.809 77.4259 15.7397 77.2526 15.705C77.0879 15.6617 76.8973 15.64 76.6806 15.64H75.4846V14.431H76.4336C76.5983 14.431 76.7499 14.418 76.8886 14.392C77.0273 14.366 77.1486 14.3227 77.2526 14.262C77.3653 14.2013 77.4519 14.1233 77.5126 14.028C77.5733 13.924 77.6036 13.8027 77.6036 13.664C77.6036 13.4647 77.5473 13.313 77.4346 13.209C77.3219 13.0963 77.1746 13.0183 76.9926 12.975C76.8106 12.923 76.6243 12.897 76.4336 12.897C76.2256 12.897 76.0176 12.9187 75.8096 12.962C75.6103 13.0053 75.4369 13.0833 75.2896 13.196C75.1509 13.3087 75.0643 13.4647 75.0296 13.664H73.5086C73.5606 13.1267 73.7339 12.7063 74.0286 12.403C74.3233 12.091 74.6873 11.87 75.1206 11.74C75.5539 11.61 75.9916 11.545 76.4336 11.545C76.7456 11.545 77.0576 11.5753 77.3696 11.636C77.6903 11.6967 77.9806 11.8007 78.2406 11.948C78.5006 12.0953 78.7086 12.2903 78.8646 12.533C79.0206 12.7757 79.0986 13.079 79.0986 13.443C79.0986 13.729 79.0379 13.9933 78.9166 14.236C78.7953 14.47 78.6046 14.6563 78.3446 14.795C78.7086 14.9337 78.9686 15.146 79.1246 15.432C79.2806 15.718 79.3586 16.0473 79.3586 16.42C79.3586 16.81 79.2719 17.1437 79.0986 17.421C78.9339 17.6983 78.7086 17.9237 78.4226 18.097C78.1453 18.2703 77.8333 18.396 77.4866 18.474C77.1486 18.552 76.8063 18.591 76.4596 18.591ZM80.5854 18.5V11.649H82.1714V14.392H83.2634L85.0444 11.649H86.8384L84.6414 14.886L86.9164 18.5H85.0834L83.3804 15.796H82.1714V18.5H80.5854ZM89.776 18.591C89.4726 18.591 89.178 18.5477 88.892 18.461C88.6146 18.3743 88.3633 18.2487 88.138 18.084C87.9126 17.9107 87.735 17.6983 87.605 17.447C87.475 17.187 87.41 16.8837 87.41 16.537C87.41 16.095 87.4966 15.7353 87.67 15.458C87.8433 15.172 88.0773 14.9553 88.372 14.808C88.6753 14.6607 89.0176 14.561 89.399 14.509C89.7803 14.4483 90.179 14.418 90.595 14.418H91.934C91.934 14.1147 91.8863 13.8547 91.791 13.638C91.6956 13.4127 91.544 13.235 91.336 13.105C91.1366 12.975 90.8766 12.91 90.556 12.91C90.348 12.91 90.153 12.936 89.971 12.988C89.7976 13.0313 89.646 13.105 89.516 13.209C89.3946 13.3043 89.308 13.43 89.256 13.586H87.631C87.6916 13.2307 87.813 12.9273 87.995 12.676C88.1856 12.416 88.4153 12.2037 88.684 12.039C88.9613 11.8743 89.2646 11.753 89.594 11.675C89.9233 11.5883 90.257 11.545 90.595 11.545C91.2623 11.545 91.804 11.675 92.22 11.935C92.6446 12.195 92.9566 12.5677 93.156 13.053C93.3553 13.5383 93.455 14.1233 93.455 14.808V18.5H92.051L92.012 17.668C91.8213 17.9107 91.6003 18.1013 91.349 18.24C91.1063 18.37 90.8506 18.461 90.582 18.513C90.3133 18.565 90.0446 18.591 89.776 18.591ZM90.14 17.304C90.4953 17.304 90.8073 17.239 91.076 17.109C91.3446 16.979 91.557 16.797 91.713 16.563C91.869 16.329 91.947 16.056 91.947 15.744V15.536H90.712C90.4866 15.536 90.27 15.5447 90.062 15.562C89.854 15.5707 89.6676 15.6053 89.503 15.666C89.347 15.718 89.2213 15.8003 89.126 15.913C89.0306 16.0257 88.983 16.186 88.983 16.394C88.983 16.5933 89.035 16.7623 89.139 16.901C89.243 17.031 89.3816 17.1307 89.555 17.2C89.737 17.2693 89.932 17.304 90.14 17.304ZM98.5873 18.5V11.649H100.173V16.108C100.225 16.0127 100.29 15.9087 100.368 15.796C100.455 15.6833 100.529 15.5923 100.589 15.523L103.527 11.649H104.931V18.5H103.358V14.093C103.289 14.2057 103.215 14.314 103.137 14.418C103.068 14.5133 102.999 14.6043 102.929 14.691L100.03 18.5H98.5873ZM106.471 18.5V11.649H108.057V14.405H110.917V11.649H112.503V18.5H110.917V15.822H108.057V18.5H106.471ZM117.392 20.944V18.565C116.854 18.5477 116.36 18.4653 115.91 18.318C115.468 18.1707 115.082 17.954 114.753 17.668C114.432 17.382 114.181 17.0267 113.999 16.602C113.817 16.1773 113.726 15.6747 113.726 15.094C113.726 14.3053 113.877 13.6553 114.181 13.144C114.484 12.624 114.909 12.234 115.455 11.974C116.009 11.7053 116.655 11.5667 117.392 11.558V9.452H118.978V11.558C119.723 11.5667 120.369 11.7053 120.915 11.974C121.469 12.2427 121.894 12.6413 122.189 13.17C122.492 13.69 122.644 14.34 122.644 15.12C122.644 15.8913 122.483 16.5283 122.163 17.031C121.851 17.525 121.417 17.8977 120.863 18.149C120.317 18.3917 119.688 18.5347 118.978 18.578V20.944H117.392ZM117.392 17.187V12.975C116.698 12.975 116.178 13.1613 115.832 13.534C115.485 13.9067 115.312 14.418 115.312 15.068C115.312 15.51 115.39 15.8913 115.546 16.212C115.702 16.524 115.931 16.7667 116.235 16.94C116.547 17.1047 116.932 17.187 117.392 17.187ZM118.978 17.187C119.437 17.187 119.818 17.1047 120.122 16.94C120.434 16.7667 120.668 16.524 120.824 16.212C120.98 15.8913 121.058 15.51 121.058 15.068C121.058 14.418 120.88 13.9067 120.525 13.534C120.178 13.1613 119.662 12.975 118.978 12.975V17.187ZM126.997 18.591C126.295 18.591 125.688 18.448 125.177 18.162C124.674 17.876 124.284 17.4687 124.007 16.94C123.738 16.4113 123.604 15.7917 123.604 15.081C123.604 14.3617 123.738 13.742 124.007 13.222C124.284 12.6933 124.674 12.2817 125.177 11.987C125.688 11.6923 126.295 11.545 126.997 11.545C127.69 11.545 128.288 11.6923 128.791 11.987C129.293 12.2817 129.679 12.6977 129.948 13.235C130.216 13.7637 130.351 14.3877 130.351 15.107C130.351 15.809 130.216 16.4243 129.948 16.953C129.688 17.473 129.306 17.876 128.804 18.162C128.301 18.448 127.699 18.591 126.997 18.591ZM126.984 17.148C127.417 17.148 127.764 17.0527 128.024 16.862C128.292 16.6713 128.487 16.42 128.609 16.108C128.73 15.796 128.791 15.458 128.791 15.094C128.791 14.73 128.73 14.3877 128.609 14.067C128.487 13.7463 128.292 13.4907 128.024 13.3C127.764 13.1007 127.417 13.001 126.984 13.001C126.55 13.001 126.199 13.1007 125.931 13.3C125.662 13.4907 125.467 13.7463 125.346 14.067C125.224 14.3877 125.164 14.73 125.164 15.094C125.164 15.4667 125.224 15.809 125.346 16.121C125.467 16.433 125.662 16.6843 125.931 16.875C126.199 17.057 126.55 17.148 126.984 17.148ZM131.621 21.022V11.649H133.103L133.181 12.585C133.449 12.221 133.779 11.9567 134.169 11.792C134.559 11.6273 134.97 11.545 135.404 11.545C136.062 11.545 136.613 11.701 137.055 12.013C137.497 12.325 137.826 12.7497 138.043 13.287C138.259 13.8157 138.368 14.4137 138.368 15.081C138.368 15.7483 138.255 16.3463 138.03 16.875C137.813 17.4037 137.475 17.824 137.016 18.136C136.565 18.4393 135.984 18.591 135.274 18.591C134.944 18.591 134.65 18.5563 134.39 18.487C134.13 18.409 133.9 18.3093 133.701 18.188C133.51 18.058 133.345 17.9193 133.207 17.772V21.022H131.621ZM135.053 17.161C135.495 17.161 135.841 17.0657 136.093 16.875C136.344 16.6757 136.526 16.42 136.639 16.108C136.751 15.7873 136.808 15.4493 136.808 15.094C136.808 14.7213 136.747 14.3747 136.626 14.054C136.513 13.7333 136.327 13.4733 136.067 13.274C135.807 13.0747 135.46 12.975 135.027 12.975C134.628 12.975 134.29 13.0747 134.013 13.274C133.744 13.4647 133.54 13.7203 133.402 14.041C133.263 14.3617 133.194 14.7083 133.194 15.081C133.194 15.4623 133.259 15.8133 133.389 16.134C133.519 16.446 133.722 16.6973 134 16.888C134.277 17.07 134.628 17.161 135.053 17.161ZM139.593 18.5V11.649H141.53L143.532 14.769L145.495 11.649H147.406V18.5H145.82V13.664L143.74 16.992H143.272L141.166 13.651V18.5H139.593ZM151.069 18.591C150.766 18.591 150.471 18.5477 150.185 18.461C149.908 18.3743 149.656 18.2487 149.431 18.084C149.206 17.9107 149.028 17.6983 148.898 17.447C148.768 17.187 148.703 16.8837 148.703 16.537C148.703 16.095 148.79 15.7353 148.963 15.458C149.136 15.172 149.37 14.9553 149.665 14.808C149.968 14.6607 150.311 14.561 150.692 14.509C151.073 14.4483 151.472 14.418 151.888 14.418H153.227C153.227 14.1147 153.179 13.8547 153.084 13.638C152.989 13.4127 152.837 13.235 152.629 13.105C152.43 12.975 152.17 12.91 151.849 12.91C151.641 12.91 151.446 12.936 151.264 12.988C151.091 13.0313 150.939 13.105 150.809 13.209C150.688 13.3043 150.601 13.43 150.549 13.586H148.924C148.985 13.2307 149.106 12.9273 149.288 12.676C149.479 12.416 149.708 12.2037 149.977 12.039C150.254 11.8743 150.558 11.753 150.887 11.675C151.216 11.5883 151.55 11.545 151.888 11.545C152.555 11.545 153.097 11.675 153.513 11.935C153.938 12.195 154.25 12.5677 154.449 13.053C154.648 13.5383 154.748 14.1233 154.748 14.808V18.5H153.344L153.305 17.668C153.114 17.9107 152.893 18.1013 152.642 18.24C152.399 18.37 152.144 18.461 151.875 18.513C151.606 18.565 151.338 18.591 151.069 18.591ZM151.433 17.304C151.788 17.304 152.1 17.239 152.369 17.109C152.638 16.979 152.85 16.797 153.006 16.563C153.162 16.329 153.24 16.056 153.24 15.744V15.536H152.005C151.78 15.536 151.563 15.5447 151.355 15.562C151.147 15.5707 150.961 15.6053 150.796 15.666C150.64 15.718 150.514 15.8003 150.419 15.913C150.324 16.0257 150.276 16.186 150.276 16.394C150.276 16.5933 150.328 16.7623 150.432 16.901C150.536 17.031 150.675 17.1307 150.848 17.2C151.03 17.2693 151.225 17.304 151.433 17.304ZM161.553 20.489V18.5H156.262V11.649H157.848V17.096H160.643V11.649H162.229V17.096H163.113V20.489H161.553ZM164.082 18.5V11.649H165.668V16.108C165.72 16.0127 165.785 15.9087 165.863 15.796C165.95 15.6833 166.024 15.5923 166.084 15.523L169.022 11.649H170.426V18.5H168.853V14.093C168.784 14.2057 168.71 14.314 168.632 14.418C168.563 14.5133 168.494 14.6043 168.424 14.691L165.525 18.5H164.082ZM171.966 18.5V11.649H173.552V16.108C173.604 16.0127 173.669 15.9087 173.747 15.796C173.834 15.6833 173.908 15.5923 173.968 15.523L176.906 11.649H178.31V18.5H176.737V14.093C176.668 14.2057 176.594 14.314 176.516 14.418C176.447 14.5133 176.378 14.6043 176.308 14.691L173.409 18.5H171.966ZM186.484 18.591C185.774 18.591 185.176 18.448 184.69 18.162C184.205 17.8673 183.837 17.4557 183.585 16.927C183.334 16.3983 183.208 15.7873 183.208 15.094C183.208 14.4007 183.338 13.7897 183.598 13.261C183.858 12.7237 184.24 12.3033 184.742 12C185.245 11.6967 185.856 11.545 186.575 11.545C187.104 11.545 187.572 11.636 187.979 11.818C188.395 12 188.729 12.2687 188.98 12.624C189.24 12.9707 189.405 13.404 189.474 13.924H187.914C187.81 13.5947 187.637 13.3563 187.394 13.209C187.16 13.053 186.874 12.975 186.536 12.975C186.103 12.975 185.756 13.0833 185.496 13.3C185.245 13.508 185.063 13.7723 184.95 14.093C184.838 14.4137 184.781 14.7473 184.781 15.094C184.781 15.458 184.842 15.8003 184.963 16.121C185.085 16.433 185.271 16.6843 185.522 16.875C185.782 17.0657 186.116 17.161 186.523 17.161C186.853 17.161 187.147 17.0873 187.407 16.94C187.676 16.7927 187.849 16.5543 187.927 16.225H189.539C189.479 16.7537 189.301 17.1957 189.006 17.551C188.72 17.8977 188.356 18.1577 187.914 18.331C187.472 18.5043 186.996 18.591 186.484 18.591ZM197.364 18.591C196.653 18.591 196.055 18.448 195.57 18.162C195.085 17.8673 194.716 17.4557 194.465 16.927C194.214 16.3983 194.088 15.7873 194.088 15.094C194.088 14.4007 194.218 13.7897 194.478 13.261C194.738 12.7237 195.119 12.3033 195.622 12C196.125 11.6967 196.736 11.545 197.455 11.545C197.984 11.545 198.452 11.636 198.859 11.818C199.275 12 199.609 12.2687 199.86 12.624C200.12 12.9707 200.285 13.404 200.354 13.924H198.794C198.69 13.5947 198.517 13.3563 198.274 13.209C198.04 13.053 197.754 12.975 197.416 12.975C196.983 12.975 196.636 13.0833 196.376 13.3C196.125 13.508 195.943 13.7723 195.83 14.093C195.717 14.4137 195.661 14.7473 195.661 15.094C195.661 15.458 195.722 15.8003 195.843 16.121C195.964 16.433 196.151 16.6843 196.402 16.875C196.662 17.0657 196.996 17.161 197.403 17.161C197.732 17.161 198.027 17.0873 198.287 16.94C198.556 16.7927 198.729 16.5543 198.807 16.225H200.419C200.358 16.7537 200.181 17.1957 199.886 17.551C199.6 17.8977 199.236 18.1577 198.794 18.331C198.352 18.5043 197.875 18.591 197.364 18.591ZM203.742 18.591C203.438 18.591 203.144 18.5477 202.858 18.461C202.58 18.3743 202.329 18.2487 202.104 18.084C201.878 17.9107 201.701 17.6983 201.571 17.447C201.441 17.187 201.376 16.8837 201.376 16.537C201.376 16.095 201.462 15.7353 201.636 15.458C201.809 15.172 202.043 14.9553 202.338 14.808C202.641 14.6607 202.983 14.561 203.365 14.509C203.746 14.4483 204.145 14.418 204.561 14.418H205.9C205.9 14.1147 205.852 13.8547 205.757 13.638C205.661 13.4127 205.51 13.235 205.302 13.105C205.102 12.975 204.842 12.91 204.522 12.91C204.314 12.91 204.119 12.936 203.937 12.988C203.763 13.0313 203.612 13.105 203.482 13.209C203.36 13.3043 203.274 13.43 203.222 13.586H201.597C201.657 13.2307 201.779 12.9273 201.961 12.676C202.151 12.416 202.381 12.2037 202.65 12.039C202.927 11.8743 203.23 11.753 203.56 11.675C203.889 11.5883 204.223 11.545 204.561 11.545C205.228 11.545 205.77 11.675 206.186 11.935C206.61 12.195 206.922 12.5677 207.122 13.053C207.321 13.5383 207.421 14.1233 207.421 14.808V18.5H206.017L205.978 17.668C205.787 17.9107 205.566 18.1013 205.315 18.24C205.072 18.37 204.816 18.461 204.548 18.513C204.279 18.565 204.01 18.591 203.742 18.591ZM204.106 17.304C204.461 17.304 204.773 17.239 205.042 17.109C205.31 16.979 205.523 16.797 205.679 16.563C205.835 16.329 205.913 16.056 205.913 15.744V15.536H204.678C204.452 15.536 204.236 15.5447 204.028 15.562C203.82 15.5707 203.633 15.6053 203.469 15.666C203.313 15.718 203.187 15.8003 203.092 15.913C202.996 16.0257 202.949 16.186 202.949 16.394C202.949 16.5933 203.001 16.7623 203.105 16.901C203.209 17.031 203.347 17.1307 203.521 17.2C203.703 17.2693 203.898 17.304 204.106 17.304ZM208.935 18.5V11.649H210.521V16.108C210.573 16.0127 210.638 15.9087 210.716 15.796C210.803 15.6833 210.876 15.5923 210.937 15.523L213.875 11.649H215.279V18.5H213.706V14.093C213.637 14.2057 213.563 14.314 213.485 14.418C213.416 14.5133 213.346 14.6043 213.277 14.691L210.378 18.5H208.935ZM212.211 10.947C211.474 10.947 210.894 10.778 210.469 10.44C210.053 10.0933 209.841 9.582 209.832 8.906H211.184C211.193 9.22667 211.288 9.45633 211.47 9.595C211.661 9.73367 211.912 9.803 212.224 9.803C212.536 9.803 212.783 9.73367 212.965 9.595C213.156 9.45633 213.255 9.22667 213.264 8.906H214.616C214.607 9.348 214.503 9.725 214.304 10.037C214.113 10.3403 213.84 10.57 213.485 10.726C213.13 10.8733 212.705 10.947 212.211 10.947ZM218.431 18.5V13.053H216.169V11.649H222.292V13.053H220.017V18.5H218.431ZM225.311 18.591C225.008 18.591 224.713 18.5477 224.427 18.461C224.15 18.3743 223.898 18.2487 223.673 18.084C223.448 17.9107 223.27 17.6983 223.14 17.447C223.01 17.187 222.945 16.8837 222.945 16.537C222.945 16.095 223.032 15.7353 223.205 15.458C223.378 15.172 223.612 14.9553 223.907 14.808C224.21 14.6607 224.553 14.561 224.934 14.509C225.315 14.4483 225.714 14.418 226.13 14.418H227.469C227.469 14.1147 227.421 13.8547 227.326 13.638C227.231 13.4127 227.079 13.235 226.871 13.105C226.672 12.975 226.412 12.91 226.091 12.91C225.883 12.91 225.688 12.936 225.506 12.988C225.333 13.0313 225.181 13.105 225.051 13.209C224.93 13.3043 224.843 13.43 224.791 13.586H223.166C223.227 13.2307 223.348 12.9273 223.53 12.676C223.721 12.416 223.95 12.2037 224.219 12.039C224.496 11.8743 224.8 11.753 225.129 11.675C225.458 11.5883 225.792 11.545 226.13 11.545C226.797 11.545 227.339 11.675 227.755 11.935C228.18 12.195 228.492 12.5677 228.691 13.053C228.89 13.5383 228.99 14.1233 228.99 14.808V18.5H227.586L227.547 17.668C227.356 17.9107 227.135 18.1013 226.884 18.24C226.641 18.37 226.386 18.461 226.117 18.513C225.848 18.565 225.58 18.591 225.311 18.591ZM225.675 17.304C226.03 17.304 226.342 17.239 226.611 17.109C226.88 16.979 227.092 16.797 227.248 16.563C227.404 16.329 227.482 16.056 227.482 15.744V15.536H226.247C226.022 15.536 225.805 15.5447 225.597 15.562C225.389 15.5707 225.203 15.6053 225.038 15.666C224.882 15.718 224.756 15.8003 224.661 15.913C224.566 16.0257 224.518 16.186 224.518 16.394C224.518 16.5933 224.57 16.7623 224.674 16.901C224.778 17.031 224.917 17.1307 225.09 17.2C225.272 17.2693 225.467 17.304 225.675 17.304Z" fill="#1A375C"></path><defs><clipPath id="clip0_943_7406"><rect width="16" height="16" fill="white" transform="translate(12.0957 6)"></rect></clipPath></defs></svg> 