<?xml version="1.0" encoding="UTF-8"?> <svg xmlns="http://www.w3.org/2000/svg" width="15" height="15" viewBox="0 0 15 15" fill="none"><g clip-path="url(#clip0_2423_7928)"><path d="M10.0072 5.33467L10.8262 6.16592L7.44692 9.495C7.22117 9.72075 6.92425 9.83333 6.62617 9.83333C6.32808 9.83333 6.02825 9.71958 5.80017 9.49208L4.17733 7.91942L4.98992 7.08117L6.61917 8.66025L10.0072 5.33467ZM14.5 7.5C14.5 11.3599 11.3599 14.5 7.5 14.5C3.64008 14.5 0.5 11.3599 0.5 7.5C0.5 3.64008 3.64008 0.5 7.5 0.5C11.3599 0.5 14.5 3.64008 14.5 7.5ZM13.3333 7.5C13.3333 4.2835 10.7165 1.66667 7.5 1.66667C4.2835 1.66667 1.66667 4.2835 1.66667 7.5C1.66667 10.7165 4.2835 13.3333 7.5 13.3333C10.7165 13.3333 13.3333 10.7165 13.3333 7.5Z" fill="#3739CF"></path></g><defs><clipPath id="clip0_2423_7928"><rect width="14" height="14" fill="white" transform="translate(0.5 0.5)"></rect></clipPath></defs></svg> 